<?xml version="1.0" encoding="UTF-8"?>
<svg width="140px" height="164px" viewBox="0 0 140 164" version="1.1" xmlns="http://www.w3.org/2000/svg" xmlns:xlink="http://www.w3.org/1999/xlink">
    <title>head备份</title>
    <defs>
        <linearGradient x1="50%" y1="0%" x2="50%" y2="100%" id="linearGradient-1">
            <stop stop-color="#000000" offset="0%"></stop>
            <stop stop-color="#000000" offset="42.637471%"></stop>
            <stop stop-color="#4D4B4B" offset="100%"></stop>
        </linearGradient>
    </defs>
    <g id="页面-1" stroke="none" stroke-width="1" fill="none" fill-rule="evenodd">
        <g id="画板" transform="translate(-1228.000000, -190.000000)" fill-rule="nonzero">
            <g id="head备份" transform="translate(1228.000000, 190.000000)">
                <path d="M11,76 L19,76 L19,76 L19,98 L11,98 C4.92486775,98 7.43989126e-16,93.0751322 0,87 C-7.43989126e-16,80.9248678 4.92486775,76 11,76 Z" id="矩形" fill="#E7E6E6"></path>
                <path d="M125,76 L129,76 C135.075132,76 140,80.9248678 140,87 C140,93.0751322 135.075132,98 129,98 L125,98 L125,98 L125,76 Z" id="矩形" fill="#E7E6E6"></path>
                <rect id="矩形" fill="#FFFFFF" x="15" y="33" width="110" height="76"></rect>
                <rect id="矩形" fill="#000000" transform="translate(92.500000, 71.000000) rotate(-360.000000) translate(-92.500000, -71.000000) " x="87" y="59" width="11" height="24" rx="5.5"></rect>
                <rect id="矩形备份-4" fill="#000000" transform="translate(47.500000, 71.000000) rotate(-360.000000) translate(-47.500000, -71.000000) " x="42" y="59" width="11" height="24" rx="5.5"></rect>
                <path d="M72.3650198,95.6135022 L73.2471843,95.2542225 C73.9740503,94.9581914 74.8032722,95.307452 75.0993034,96.034318 C75.1954371,96.2703619 75.22632,96.527916 75.1887766,96.7800052 C75.1587352,96.9813908 75.1194072,97.1472389 75.0707924,97.2775495 C74.8939844,97.7514788 74.4505315,98.1408215 73.7404335,98.4455777 L73.7404335,98.4455777 L72.4530173,98.4455777 C71.7950501,98.4455777 71.2616622,97.9121898 71.2616622,97.2542225 C71.2616622,96.5338547 71.6978608,95.8852165 72.3650198,95.6135022 Z" id="矩形备份-6" fill="#000000" transform="translate(73.261662, 96.445578) rotate(-360.000000) translate(-73.261662, -96.445578) "></path>
                <path d="M66.3650198,95.6135022 L67.2471843,95.2542225 C67.9740503,94.9581914 68.8032722,95.307452 69.0993034,96.034318 C69.1954371,96.2703619 69.22632,96.527916 69.1887766,96.7800052 C69.1587352,96.9813908 69.1194072,97.1472389 69.0707924,97.2775495 C68.8939844,97.7514788 68.4505315,98.1408215 67.7404335,98.4455777 L67.7404335,98.4455777 L66.4530173,98.4455777 C65.7950501,98.4455777 65.2616622,97.9121898 65.2616622,97.2542225 C65.2616622,96.5338547 65.6978608,95.8852165 66.3650198,95.6135022 Z" id="矩形备份-7" fill="#000000" transform="translate(67.261662, 96.445578) scale(-1, 1) rotate(-360.000000) translate(-67.261662, -96.445578) "></path>
                <path d="M60,0 C65.7818881,0 70.77337,3.38413081 73.1017705,8.27971702 C76.9698173,5.07471738 81.9356785,3.14858881 87.3514112,3.14858881 C87.7246248,3.14858881 88.0977798,3.15793643 88.4705253,3.17662288 L93.8856161,3.44809187 C109.652307,4.23850662 123.904168,13.0824381 131.612244,26.8591893 C132.699336,28.8021656 133.120423,30.9371293 132.949872,33.0007898 L133,33 L125.922844,78.6798244 C125.862187,79.0713416 125.495626,79.3395564 125.104109,79.2788988 C124.728001,79.2206286 124.462865,78.8787788 124.5,78.5 C125.853074,64.6986471 121.218522,51.0921822 111.969526,41.0291736 C104.721392,39.6954308 98.6259805,39.0283194 93.6819718,39.0283194 C90.0197667,39.0283194 86.5200082,39.3943566 83.1826962,40.126431 C77.0096364,41.4805828 70.8908834,38.8146071 67.5575904,33.8770119 C65.3569539,35.2237646 62.7691267,36 60,36 C59.0463651,36 58.114232,35.9079398 57.212003,35.7322216 C56.0493502,36.3433095 54.7584804,36.7567284 53.3778431,36.9245288 C52.6909857,37.0080083 51.9978485,37.0273692 51.307401,36.9823788 C47.6017154,36.740815 43.3039036,37.5264129 38.4139655,39.3391726 C33.3173504,41.22855 28.4614811,42.685463 23.8463576,43.7099117 C23.6938384,43.7437678 23.5413488,43.7749378 23.3889382,43.8034534 C18.1268411,50.5871464 15.329061,59.0661937 15.6339925,67.8136866 L16,78.3132517 C16.020285,78.8951617 15.5649979,79.3833373 14.9830878,79.4036223 C14.4311656,79.4228619 13.9579271,79.0129293 13.8982506,78.4639057 L9.5,38 L9.52055938,38.0007287 C8.58594714,36.6161871 7.89066174,35.0361923 7.50673435,33.3066061 C6.94303529,30.7671517 7.11412884,28.1196826 8,25.6739071 C12.321998,13.7414308 22.7608877,5.08057949 35.2860987,3.03540342 L37.5,2.67390708 C41.8192256,1.96864336 46.0493477,2.57961114 49.7810365,4.21239214 C52.40198,1.60910155 56.0130771,0 60,0 Z" id="形状结合" fill="url(#linearGradient-1)"></path>
                <path d="M125,109 C125,139 100.4,164 70,164 C39.6,164 15,139 15,109 C15,109 39.6,102.234868 70,102.234868 C100.4,102.234868 125,109 125,109 Z" id="路径" fill="#000000"></path>
                <path d="M96.761341,116.354709 C98.419277,117.464632 88.2212482,132.698693 69.3323984,132.698693 C50.4435486,132.698693 41.6661746,117.714151 43.1502259,116.354709 C45.3170833,114.369793 48.5044039,129.51658 69.3323984,129.538527 C90.1603929,129.560474 93.6569515,114.276443 96.761341,116.354709 Z" id="矩形" fill="#FFFFFF"></path>
            </g>
        </g>
    </g>
</svg>