<?xml version="1.0" encoding="UTF-8"?>
<svg width="16px" height="16px" viewBox="0 0 16 16" version="1.1" xmlns="http://www.w3.org/2000/svg" xmlns:xlink="http://www.w3.org/1999/xlink">
    <title>关  闭</title>
    <g id="2.2.1_充电中" stroke="none" stroke-width="1" fill="none" fill-rule="evenodd">
        <g id="关--闭" fill="#FFFFFF" fill-rule="nonzero">
            <path d="M9.23871684,8 L15.7533676,1.48263406 C16.0822108,1.15365379 16.0822108,0.611280911 15.7533676,0.282300639 L15.717817,0.246735204 C15.3889738,-0.0822450681 14.8468268,-0.0822450681 14.5179836,0.246735204 L8.00333287,6.7729925 L1.48868213,0.246735204 C1.15983891,-0.0822450681 0.617691987,-0.0822450681 0.288848771,0.246735204 L0.253298153,0.282300639 C-0.0844327177,0.611280911 -0.0844327177,1.15365379 0.253298153,1.48263407 L6.7679489,8 L0.253298153,14.5173659 C-0.075545063,14.8463462 -0.075545063,15.3887191 0.253298153,15.7176994 L0.288848771,15.7532648 C0.617691987,16.0822451 1.15983891,16.0822451 1.48868213,15.7532648 L8.00333287,9.23589886 L14.5179836,15.7532648 C14.8468268,16.0822451 15.3889738,16.0822451 15.717817,15.7532648 L15.7533676,15.7176994 C16.0822108,15.3887191 16.0822108,14.8463462 15.7533676,14.5173659 L9.23871684,8 Z" id="路径"></path>
        </g>
    </g>
</svg>