<?xml version="1.0" encoding="UTF-8"?>
<svg width="48px" height="48px" viewBox="0 0 48 48" version="1.1" xmlns="http://www.w3.org/2000/svg" xmlns:xlink="http://www.w3.org/1999/xlink">
    <title>画板</title>
    <g id="画板" stroke="none" stroke-width="1" fill="none" fill-rule="evenodd">
        <g id="hbutton" transform="translate(15.000000, 15.000000)" fill="#FFFFFF" fill-rule="nonzero">
            <path d="M16.875,2.78571429 L1.125,2.78571429 C0.503679656,2.78571429 0,2.27403971 0,1.64285714 C0,1.01167457 0.503679656,0.5 1.125,0.5 L16.875,0.5 C17.4963203,0.5 18,1.01167457 18,1.64285714 C18,2.27403971 17.4963203,2.78571429 16.875,2.78571429 Z M16.875,9.64285714 L1.125,9.64285714 C0.503679656,9.64285714 0,9.13118257 0,8.5 C0,7.86881743 0.503679656,7.35714286 1.125,7.35714286 L16.875,7.35714286 C17.4963203,7.35714286 18,7.86881743 18,8.5 C18,9.13118257 17.4963203,9.64285714 16.875,9.64285714 Z M16.875,16.5 L1.125,16.5 C0.503679656,16.5 0,15.9883254 0,15.3571429 C0,14.7259603 0.503679656,14.2142857 1.125,14.2142857 L16.875,14.2142857 C17.4963203,14.2142857 18,14.7259603 18,15.3571429 C18,15.9883254 17.4963203,16.5 16.875,16.5 Z" id="形状"></path>
        </g>
    </g>
</svg>