<?xml version="1.0" encoding="UTF-8"?>
<svg width="18px" height="15px" viewBox="0 0 18 15" version="1.1" xmlns="http://www.w3.org/2000/svg" xmlns:xlink="http://www.w3.org/1999/xlink">
    <title>left</title>
    <g id="2.2.1_充电中" stroke="none" stroke-width="1" fill="none" fill-rule="evenodd">
        <g id="left" transform="translate(9.000000, 7.500000) scale(-1, 1) translate(-9.000000, -7.500000) " fill="#FFFFFF" fill-rule="nonzero">
            <path d="M1.00018163,8.48020487 L14.442348,8.48020487 L9.14961585,13.2861584 C8.8823831,13.5233854 8.76539783,13.8835794 8.84331176,14.2292589 C8.92122569,14.5749385 9.18201408,14.8527538 9.52613747,14.9566664 C9.87026086,15.060579 10.2446094,14.9745517 10.5062993,14.7314199 L17.6790547,8.21921845 C17.8836815,8.03281582 18,7.77091656 18,7.4965877 C18,7.22225884 17.8836815,6.96035957 17.6790547,6.77395694 L10.5062993,0.261755435 C10.3116316,0.0843421533 10.0531778,-0.0095637315 9.78800118,0.000771008128 C9.52282459,0.0111057478 9.27273481,0.124831126 9.09294848,0.316838022 C8.91299592,0.508557231 8.81786511,0.762750663 8.82849289,1.02347422 C8.83912068,1.28419777 8.95463605,1.53008395 9.14961585,1.70701695 L14.442348,6.51297053 L1.00018163,6.51297053 C0.642871312,6.51291104 0.312677085,6.70037441 0.134004465,7.00473105 C-0.044668155,7.30908769 -0.044668155,7.6840877 0.134004465,7.98844435 C0.312677085,8.29280099 0.642871312,8.48026435 1.00018163,8.48020487" id="路径"></path>
        </g>
    </g>
</svg>