<?xml version="1.0" encoding="UTF-8"?>
<svg width="17px" height="18px" viewBox="0 0 17 18" version="1.1" xmlns="http://www.w3.org/2000/svg" xmlns:xlink="http://www.w3.org/1999/xlink">
    <title>搜索</title>
    <g id="2.2.1_充电中" stroke="none" stroke-width="1" fill="none" fill-rule="evenodd">
        <g id="搜索" fill="#FFFFFF" fill-rule="nonzero">
            <path d="M8.09686797,14.6087672 C11.6272226,14.6087672 14.4889639,11.7233633 14.4889639,8.16381763 C14.4889639,4.60427198 11.6272226,1.71886805 8.09686797,1.71886805 C4.56651336,1.71886805 1.704772,4.60427198 1.704772,8.16381763 C1.704772,11.7233633 4.56651336,14.6087672 8.09686797,14.6087672 Z M14.0268154,13.7219421 L16.7575188,16.5403186 C17.0863623,16.8798899 17.0799231,17.4239513 16.7431366,17.7555138 C16.4063501,18.0870764 15.8667503,18.080584 15.5379069,17.7410127 L12.7394473,14.8523863 C11.3796284,15.8145912 9.75813734,16.3296191 8.09686797,16.3269908 C3.62431842,16.3269908 0,12.6727043 0,8.16381763 C0,3.6549309 3.62495763,0 8.09686797,0 C12.5681391,0 16.1930967,3.6549309 16.1930967,8.16381763 C16.1930967,10.3106303 15.3710732,12.2640945 14.0268154,13.7219421 Z" id="形状"></path>
        </g>
    </g>
</svg>