<?xml version="1.0" encoding="UTF-8"?>
<svg width="60px" height="60px" viewBox="0 0 60 60" version="1.1" xmlns="http://www.w3.org/2000/svg" xmlns:xlink="http://www.w3.org/1999/xlink">
    <title>ant motion</title>
    <g id="ant-motion" stroke="none" stroke-width="1" fill="none" fill-rule="evenodd">
        <g id="TOXWfHIUGHvZIyb" transform="translate(9.000000, 7.000000)" fill="#019BF0" fill-rule="nonzero">
            <path d="M6.89983445,1.8376452 L21.510021,16.0800625 L36.0836894,1.87324406 C36.8028175,1.04335978 37.8782024,0.516336347 39.0798937,0.516336347 C41.2448418,0.516336347 43,2.22731346 43,4.33802058 L43,29.538623 C43,31.64933 41.2448418,33.3603073 39.0798937,33.3603073 C36.9146836,33.3603073 35.1595256,31.64933 35.1595256,29.538623 L35.1595256,13.5451677 L24.3712122,24.0617587 C23.578997,24.8340323 22.531167,25.2052718 21.4931988,25.1754772 C20.451589,25.2053228 19.4001717,24.8327567 18.6053179,24.0577784 L7.84080181,13.5643853 L7.84080181,41.6780605 C7.84080181,43.7890229 6.08564366,45.5 3.92043364,45.5 C1.75522361,45.5 0,43.7890229 0,41.6780605 L0,4.36017518 C0,4.34506747 0,4.32995932 0,4.31485162 C0.00385448507,2.20728593 1.75756044,0.5 3.92043364,0.5 C5.11280089,0.5 6.18081441,1.01887677 6.89983445,1.8376452 Z M10.4461251,28.6306794 C10.4461251,30.4327827 11.9444117,31.8933543 13.7925254,31.8933543 C15.6409009,31.8933543 17.1391875,30.4327827 17.1391875,28.6306794 C17.1391875,26.8288313 15.6409009,25.3682597 13.7925254,25.3682597 C11.9444117,25.3682597 10.4461251,26.8288313 10.4461251,28.6306794 Z" id="Clip-14"></path>
        </g>
    </g>
</svg>